<?xml version="1.0" encoding="UTF-8" standalone="no"?>
<!DOCTYPE svg PUBLIC "-//W3C//DTD SVG 1.1//EN" "http://www.w3.org/Graphics/SVG/1.1/DTD/svg11.dtd">
<svg version="1.1" xmlns="http://www.w3.org/2000/svg" xmlns:xlink="http://www.w3.org/1999/xlink" preserveAspectRatio="xMidYMid meet" viewBox="0 0 2160 2160" width="2160" height="2160"><defs><path d="M1506.96 1144.73C1642.51 1514.3 1441.19 1926.3 1057.3 2064.96C673.41 2203.62 252.32 2016.43 116.77 1646.85C-18.78 1277.28 182.54 865.28 359.75 163.1C950.33 587.96 1371.42 775.15 1506.96 1144.73Z" id="b3t9wlopp"></path><path d="M2043.23 1646.85C1907.68 2016.43 1486.59 2203.62 1102.7 2064.96C718.81 1926.3 517.49 1514.3 653.04 1144.73C788.58 775.15 1209.67 587.96 1800.25 163.1C1977.46 865.28 2178.78 1277.28 2043.23 1646.85Z" id="fEjrXXCt1"></path><path d="M1831.9 1345.71C1831.9 1739 1500.72 2057.83 1092.19 2057.83C683.66 2057.83 352.48 1739 352.48 1345.71C352.48 952.42 683.66 633.59 1092.19 33.91C1500.72 633.59 1831.9 952.42 1831.9 1345.71Z" id="b1g2wyGdSi"></path></defs><g><g><g><g><g><filter id="shadow4769448" x="-53.69" y="37.1" width="1729.91" height="2200.6" filterUnits="userSpaceOnUse" primitiveUnits="userSpaceOnUse"><feFlood></feFlood><feComposite in2="SourceAlpha" operator="in"></feComposite><feGaussianBlur stdDeviation="7.07"></feGaussianBlur><feOffset dx="1" dy="1" result="afterOffset"></feOffset><feFlood flood-color="#fffafa" flood-opacity="0.25"></feFlood><feComposite in2="afterOffset" operator="in"></feComposite><feMorphology operator="dilate" radius="20"></feMorphology><feComposite in2="SourceAlpha" operator="out"></feComposite></filter><path d="M1506.96 1144.73C1642.51 1514.3 1441.19 1926.3 1057.3 2064.96C673.41 2203.62 252.32 2016.43 116.77 1646.85C-18.78 1277.28 182.54 865.28 359.75 163.1C950.33 587.96 1371.42 775.15 1506.96 1144.73Z" id="cnpqUAFey" fill="white" fill-opacity="1" filter="url(#shadow4769448)"></path></g><use xlink:href="#b3t9wlopp" opacity="0.74" fill="#007ab9" fill-opacity="1"></use></g><g><g><filter id="shadow4892556" x="484.78" y="37.1" width="1729.91" height="2200.6" filterUnits="userSpaceOnUse" primitiveUnits="userSpaceOnUse"><feFlood></feFlood><feComposite in2="SourceAlpha" operator="in"></feComposite><feGaussianBlur stdDeviation="7.07"></feGaussianBlur><feOffset dx="1" dy="1" result="afterOffset"></feOffset><feFlood flood-color="#fffafa" flood-opacity="0.25"></feFlood><feComposite in2="afterOffset" operator="in"></feComposite><feMorphology operator="dilate" radius="20"></feMorphology><feComposite in2="SourceAlpha" operator="out"></feComposite></filter><path d="M2043.23 1646.85C1907.68 2016.43 1486.59 2203.62 1102.7 2064.96C718.81 1926.3 517.49 1514.3 653.04 1144.73C788.58 775.15 1209.67 587.96 1800.25 163.1C1977.46 865.28 2178.78 1277.28 2043.23 1646.85Z" id="a7EYUascUZ" fill="white" fill-opacity="1" filter="url(#shadow4892556)"></path></g><use xlink:href="#fEjrXXCt1" opacity="0.74" fill="#007ab9" fill-opacity="1"></use></g><g><g><filter id="shadow4484559" x="226.48" y="-92.09" width="1732.42" height="2276.91" filterUnits="userSpaceOnUse" primitiveUnits="userSpaceOnUse"><feFlood></feFlood><feComposite in2="SourceAlpha" operator="in"></feComposite><feGaussianBlur stdDeviation="7.07"></feGaussianBlur><feOffset dx="1" dy="1" result="afterOffset"></feOffset><feFlood flood-color="#fffafa" flood-opacity="0.25"></feFlood><feComposite in2="afterOffset" operator="in"></feComposite><feMorphology operator="dilate" radius="20"></feMorphology><feComposite in2="SourceAlpha" operator="out"></feComposite></filter><path d="M1831.9 1345.71C1831.9 1739 1500.72 2057.83 1092.19 2057.83C683.66 2057.83 352.48 1739 352.48 1345.71C352.48 952.42 683.66 633.59 1092.19 33.91C1500.72 633.59 1831.9 952.42 1831.9 1345.71Z" id="bfYkAg56K" fill="white" fill-opacity="1" filter="url(#shadow4484559)"></path></g><use xlink:href="#b1g2wyGdSi" opacity="0.74" fill="#007ab9" fill-opacity="1"></use></g></g></g></g></svg>